<svg width="12" height="12" viewBox="0 0 12 12" fill="none" xmlns="http://www.w3.org/2000/svg">
<path fill-rule="evenodd" clip-rule="evenodd" d="M0.166664 6.00002C0.166664 2.78002 2.77416 0.166687 5.99416 0.166687C9.22 0.166687 11.8333 2.78002 11.8333 6.00002C11.8333 9.22002 9.22 11.8334 5.99416 11.8334C2.77416 11.8334 0.166664 9.22002 0.166664 6.00002ZM8.91666 4.54169C8.91666 5.02585 8.52583 5.41669 8.04166 5.41669C7.5575 5.41669 7.16666 5.02585 7.16666 4.54169C7.16666 4.05752 7.5575 3.66669 8.04166 3.66669C8.52583 3.66669 8.91666 4.05752 8.91666 4.54169ZM3.95833 5.41669C4.4425 5.41669 4.83333 5.02585 4.83333 4.54169C4.83333 4.05752 4.4425 3.66669 3.95833 3.66669C3.47416 3.66669 3.08333 4.05752 3.08333 4.54169C3.08333 5.02585 3.47416 5.41669 3.95833 5.41669ZM8.77083 7.60419C8.21666 8.56085 7.18416 9.20835 6 9.20835C4.81583 9.20835 3.78333 8.56085 3.22916 7.60419C3.11833 7.41169 3.26416 7.16669 3.48583 7.16669H8.51416C8.74166 7.16669 8.88166 7.41169 8.77083 7.60419Z" fill="white"/>
</svg>
